<?xml version="1.0" encoding="UTF-8" standalone="no"?>
<!-- Created with Inkscape (http://www.inkscape.org/) -->

<svg
   xmlns:dc="http://purl.org/dc/elements/1.1/"
   xmlns:cc="http://creativecommons.org/ns#"
   xmlns:rdf="http://www.w3.org/1999/02/22-rdf-syntax-ns#"
   xmlns:svg="http://www.w3.org/2000/svg"
   xmlns="http://www.w3.org/2000/svg"
   xmlns:sodipodi="http://sodipodi.sourceforge.net/DTD/sodipodi-0.dtd"
   xmlns:inkscape="http://www.inkscape.org/namespaces/inkscape"
   width="210mm"
   height="297mm"
   viewBox="0 0 210 297"
   version="1.1"
   id="svg8"
   inkscape:version="0.92.4 (5da689c313, 2019-01-14)"
   sodipodi:docname="send.svg">
  <defs
     id="defs2" />
  <sodipodi:namedview
     id="base"
     pagecolor="#ffffff"
     bordercolor="#666666"
     borderopacity="1.0"
     inkscape:pageopacity="0.0"
     inkscape:pageshadow="2"
     inkscape:zoom="1.8044789"
     inkscape:cx="341.2434"
     inkscape:cy="677.54537"
     inkscape:document-units="mm"
     inkscape:current-layer="layer1"
     showgrid="false"
     inkscape:window-width="1920"
     inkscape:window-height="991"
     inkscape:window-x="-9"
     inkscape:window-y="-9"
     inkscape:window-maximized="1" />
  <metadata
     id="metadata5">
    <rdf:RDF>
      <cc:Work
         rdf:about="">
        <dc:format>image/svg+xml</dc:format>
        <dc:type
           rdf:resource="http://purl.org/dc/dcmitype/StillImage" />
        <dc:title />
      </cc:Work>
    </rdf:RDF>
  </metadata>
  <g
     inkscape:label="Layer 1"
     inkscape:groupmode="layer"
     id="layer1">
    <path
       style="opacity:1;fill:none;fill-opacity:0;fill-rule:nonzero;stroke:#818181;stroke-width:6.92394114;stroke-linecap:round;stroke-linejoin:round;stroke-miterlimit:4;stroke-dasharray:none;stroke-opacity:1;paint-order:normal"
       d="m 76.438519,151.40916 c 0,-0.12366 0.06208,-0.21494 0.164326,-0.24167 0.09038,-0.0236 0.188457,-0.13918 0.217953,-0.25667 0.0295,-0.11752 0.129284,-0.2949 0.22175,-0.39414 0.09246,-0.0992 0.168119,-0.23108 0.168119,-0.29297 0,-0.0619 0.07722,-0.18973 0.171591,-0.2841 0.09438,-0.0943 0.171586,-0.26675 0.171586,-0.38306 0,-0.11863 0.07032,-0.24909 0.160255,-0.29723 0.08815,-0.0472 0.184937,-0.20917 0.215104,-0.35999 0.03017,-0.15083 0.131785,-0.32813 0.225817,-0.394 0.103377,-0.0724 0.170973,-0.21731 0.170973,-0.36649 0,-0.17138 0.0524,-0.26336 0.171589,-0.30119 0.105417,-0.0335 0.171588,-0.12981 0.171588,-0.24987 0,-0.10746 0.07722,-0.26528 0.17159,-0.35068 0.09438,-0.0854 0.171586,-0.22516 0.171586,-0.31057 0,-0.0854 0.07407,-0.19492 0.164615,-0.24338 0.09053,-0.0485 0.191555,-0.21388 0.224483,-0.36763 0.03291,-0.15375 0.132582,-0.34862 0.221457,-0.43303 0.08887,-0.0844 0.161594,-0.26329 0.161594,-0.39752 0,-0.16597 0.05117,-0.25741 0.159962,-0.28586 0.102874,-0.027 0.180812,-0.15296 0.218376,-0.35318 0.03354,-0.1787 0.108673,-0.31135 0.176396,-0.31135 0.06489,0 0.142545,-0.11179 0.172563,-0.2485 0.03002,-0.13666 0.129606,-0.31637 0.221302,-0.39936 0.0917,-0.083 0.166725,-0.23213 0.166725,-0.33144 0,-0.0994 0.07722,-0.22878 0.171587,-0.28771 0.106954,-0.0668 0.171591,-0.20007 0.171591,-0.35381 0,-0.16852 0.05067,-0.25989 0.159963,-0.28848 0.102748,-0.0268 0.180788,-0.15283 0.218178,-0.35214 0.03313,-0.17659 0.130569,-0.34903 0.22611,-0.40016 0.108016,-0.0579 0.167896,-0.17951 0.167896,-0.3412 0,-0.16355 0.05995,-0.28343 0.171587,-0.34318 0.09438,-0.0504 0.17159,-0.1689 0.17159,-0.26309 0,-0.0942 0.05605,-0.19277 0.124533,-0.21905 0.0685,-0.0263 0.169487,-0.18398 0.224416,-0.35042 0.05493,-0.16644 0.172622,-0.37537 0.261532,-0.46428 0.08891,-0.0889 0.16166,-0.25819 0.16166,-0.37615 0,-0.12618 0.04923,-0.21448 0.119516,-0.21448 0.137431,0 0.223665,-0.1824 0.223665,-0.47311 0,-0.12632 0.0641,-0.22203 0.171588,-0.25614 0.09438,-0.0299 0.171587,-0.12157 0.171587,-0.20361 0,-0.082 0.09652,-0.27996 0.214488,-0.43984 0.117966,-0.1599 0.214486,-0.33515 0.214486,-0.38945 0,-0.0544 0.0772,-0.16861 0.171586,-0.25401 0.09438,-0.0854 0.171587,-0.23653 0.171587,-0.33585 0,-0.0993 0.07722,-0.22877 0.171591,-0.2877 0.111356,-0.0696 0.171586,-0.20007 0.171586,-0.37185 0,-0.19284 0.04674,-0.2769 0.1722,-0.30971 0.121417,-0.0317 0.187903,-0.14323 0.225451,-0.37805 0.02932,-0.18329 0.10205,-0.333 0.161797,-0.333 0.120816,0 0.2127,-0.18707 0.2127,-0.43298 0,-0.0889 0.07722,-0.20288 0.17159,-0.25338 0.09438,-0.0506 0.171587,-0.1617 0.171587,-0.24711 0,-0.0854 0.07502,-0.22317 0.166725,-0.30615 0.0917,-0.083 0.19058,-0.25947 0.219732,-0.39221 0.02913,-0.13275 0.104914,-0.26124 0.168358,-0.28558 0.06345,-0.0243 0.143489,-0.17235 0.177872,-0.3289 0.03439,-0.15654 0.134538,-0.33507 0.222575,-0.39674 0.103531,-0.0725 0.160063,-0.21645 0.160063,-0.40752 0,-0.20753 0.03892,-0.29541 0.130807,-0.29541 0.07195,0 0.16789,-0.0975 0.213203,-0.2167 0.04532,-0.1192 0.160181,-0.3002 0.255258,-0.40225 0.09508,-0.102 0.172873,-0.25549 0.172873,-0.34097 0,-0.0855 0.07722,-0.23263 0.17159,-0.32699 0.09438,-0.0943 0.171588,-0.26362 0.171588,-0.37608 0,-0.12674 0.0603,-0.22024 0.158575,-0.24595 0.09365,-0.0245 0.180372,-0.15042 0.211806,-0.3076 0.02929,-0.14637 0.131646,-0.34455 0.227495,-0.44041 0.09585,-0.0959 0.174271,-0.26942 0.174271,-0.38572 0,-0.12367 0.07125,-0.2496 0.171587,-0.3033 0.09438,-0.0506 0.17159,-0.16171 0.17159,-0.24711 0,-0.0854 0.07722,-0.22515 0.171587,-0.31057 0.09438,-0.0854 0.171591,-0.2206 0.171591,-0.30044 0,-0.0798 0.08,-0.23742 0.177786,-0.35016 0.09779,-0.11276 0.199128,-0.31168 0.225211,-0.44209 0.02606,-0.13038 0.09601,-0.23711 0.155383,-0.23711 0.108533,0 0.210417,-0.25696 0.212595,-0.53621 7.4e-4,-0.0826 0.07838,-0.22735 0.172759,-0.32173 0.155663,-0.15566 0.17159,-0.28598 0.17159,-1.40403 0,-1.10255 -0.01808,-1.25545 -0.17159,-1.45059 -0.09438,-0.12003 -0.171587,-0.31822 -0.171587,-0.44055 0,-0.12227 -0.07722,-0.2996 -0.171591,-0.39398 -0.09438,-0.0943 -0.171586,-0.22654 -0.171586,-0.2937 0,-0.0672 -0.09652,-0.23681 -0.214486,-0.37701 -0.117966,-0.1402 -0.214484,-0.30961 -0.214484,-0.37648 0,-0.0668 -0.07722,-0.20446 -0.171591,-0.30575 -0.09436,-0.10131 -0.171587,-0.2604 -0.171587,-0.35358 0,-0.0932 -0.07245,-0.19239 -0.161012,-0.22049 -0.10729,-0.0341 -0.179193,-0.16481 -0.215499,-0.39186 -0.03431,-0.21453 -0.100345,-0.34075 -0.178279,-0.34075 -0.07372,0 -0.146745,-0.12241 -0.18056,-0.3026 -0.03124,-0.16644 -0.129494,-0.34153 -0.218371,-0.3891 -0.08889,-0.0475 -0.161603,-0.15713 -0.161603,-0.24349 0,-0.0863 -0.07722,-0.25516 -0.171588,-0.37513 -0.09438,-0.12004 -0.17159,-0.26236 -0.17159,-0.31641 0,-0.0541 -0.09652,-0.2403 -0.214485,-0.4139 -0.117966,-0.17361 -0.214486,-0.36198 -0.214486,-0.41863 0,-0.0566 -0.07722,-0.12758 -0.171587,-0.15746 -0.120047,-0.0382 -0.17159,-0.12981 -0.17159,-0.30534 0,-0.15796 -0.06355,-0.29057 -0.171587,-0.35803 -0.09438,-0.059 -0.171591,-0.19439 -0.171591,-0.30101 0,-0.10662 -0.07722,-0.27106 -0.171586,-0.36543 -0.09438,-0.0943 -0.17159,-0.22655 -0.17159,-0.2937 0,-0.0672 -0.09652,-0.23681 -0.214485,-0.37701 -0.117966,-0.1402 -0.214486,-0.3109 -0.214486,-0.37936 0,-0.0685 -0.0772,-0.19434 -0.171587,-0.27974 -0.09438,-0.0854 -0.17159,-0.24944 -0.17159,-0.36451 0,-0.13289 -0.05907,-0.22467 -0.161815,-0.25153 -0.109595,-0.0286 -0.178845,-0.14882 -0.214578,-0.3723 -0.03616,-0.22611 -0.106745,-0.3471 -0.22426,-0.3844 -0.11995,-0.038 -0.171495,-0.12981 -0.171495,-0.30531 0,-0.15796 -0.06355,-0.29055 -0.171586,-0.35803 -0.09438,-0.059 -0.171591,-0.19439 -0.171591,-0.30101 0,-0.10662 -0.07722,-0.27106 -0.171587,-0.36544 -0.09438,-0.0943 -0.171586,-0.22799 -0.171586,-0.29692 0,-0.0689 -0.07409,-0.19442 -0.164629,-0.27883 -0.09055,-0.0844 -0.192516,-0.26471 -0.226597,-0.40063 -0.03408,-0.13596 -0.133728,-0.26589 -0.221447,-0.28883 -0.115381,-0.0302 -0.159476,-0.12115 -0.159476,-0.32896 0,-0.19353 -0.05272,-0.31548 -0.161604,-0.37375 -0.08889,-0.0475 -0.187151,-0.22266 -0.218374,-0.38908 -0.03124,-0.16644 -0.09501,-0.30262 -0.141725,-0.30262 -0.04673,0 -0.159427,-0.17373 -0.250444,-0.38606 -0.09102,-0.21234 -0.205471,-0.38608 -0.254333,-0.38608 -0.04887,0 -0.08884,-0.0939 -0.08884,-0.20871 0,-0.13331 -0.06195,-0.22835 -0.171591,-0.26315 -0.119181,-0.0379 -0.171587,-0.12981 -0.171587,-0.3012 0,-0.14355 -0.06693,-0.29362 -0.160062,-0.35884 -0.08803,-0.0616 -0.187691,-0.23792 -0.221459,-0.39166 -0.03376,-0.15375 -0.135474,-0.31918 -0.226012,-0.36764 -0.09421,-0.0504 -0.164614,-0.17891 -0.164614,-0.30041 0,-0.11682 -0.07722,-0.27842 -0.171591,-0.35922 -0.09438,-0.0808 -0.171586,-0.20828 -0.171586,-0.28326 0,-0.075 -0.07093,-0.21248 -0.157626,-0.30555 -0.08669,-0.0931 -0.183948,-0.27406 -0.21612,-0.40224 -0.03217,-0.12814 -0.115213,-0.23306 -0.184538,-0.23306 -0.08056,0 -0.145706,-0.12296 -0.180531,-0.34076 -0.0363,-0.22704 -0.108212,-0.35781 -0.215497,-0.39185 -0.108324,-0.0344 -0.161013,-0.13191 -0.161013,-0.29784 0,-0.14356 -0.06693,-0.29362 -0.160063,-0.35885 -0.08803,-0.0616 -0.187688,-0.2379 -0.221458,-0.39165 -0.03376,-0.15375 -0.135475,-0.31919 -0.226013,-0.36763 -0.09054,-0.0485 -0.164615,-0.16397 -0.164615,-0.25668 0,-0.0927 -0.07722,-0.24579 -0.171586,-0.34015 -0.09438,-0.0943 -0.17159,-0.25242 -0.17159,-0.35122 0,-0.10745 -0.06893,-0.19764 -0.171588,-0.22448 -0.108882,-0.0285 -0.171589,-0.1171 -0.171589,-0.24235 0,-0.28036 -0.08609,-0.46887 -0.214117,-0.46887 -0.06048,0 -0.135474,-0.13596 -0.166658,-0.302206 -0.03116,-0.166217 -0.131995,-0.34923 -0.224035,-0.406703 -0.09203,-0.05743 -0.167339,-0.191747 -0.167339,-0.298365 0,-0.106619 -0.07722,-0.271061 -0.171586,-0.365425 -0.09438,-0.09432 -0.171591,-0.213895 -0.171591,-0.265597 0,-0.0517 -0.07215,-0.19647 -0.160332,-0.321729 -0.08819,-0.125204 -0.186676,-0.312619 -0.218874,-0.416373 -0.0322,-0.103685 -0.133783,-0.212525 -0.22574,-0.241716 -0.113172,-0.03591 -0.165442,-0.12744 -0.161763,-0.283218 0.0053,-0.221916 0.0082,-0.223299 0.08246,-0.03871 0.05513,0.137081 0.175531,0.207243 0.423533,0.2469 0.193037,0.03088 0.346515,0.103545 0.346515,0.163953 0,0.126741 0.189495,0.212693 0.468877,0.212693 0.125302,0 0.213857,0.06274 0.242333,0.171596 0.03032,0.115981 0.117029,0.171583 0.267388,0.171583 0.122381,0 0.298753,0.0763 0.391925,0.169416 0.09318,0.0932 0.276558,0.195128 0.407523,0.226569 0.130961,0.03144 0.307182,0.128976 0.391596,0.216675 0.08441,0.08776 0.20989,0.159495 0.278831,0.159495 0.06895,0 0.202567,0.07727 0.29694,0.171583 0.09438,0.09432 0.248802,0.171596 0.343178,0.171596 0.09436,0 0.248802,0.07727 0.343173,0.171582 0.09438,0.09432 0.243168,0.171597 0.330651,0.171597 0.08749,0 0.263208,0.09656 0.390494,0.214481 0.127286,0.117943 0.316676,0.214483 0.420862,0.214483 0.104188,0 0.237649,0.0773 0.296587,0.1716 0.0679,0.10871 0.200073,0.17158 0.360793,0.17158 0.16583,0 0.28543,0.0594 0.34547,0.17158 0.05568,0.10411 0.179639,0.1716 0.314908,0.1716 0.127747,0 0.308024,0.0917 0.421858,0.21448 0.109329,0.11794 0.287852,0.21448 0.396722,0.21448 0.108869,0 0.246164,0.0773 0.305101,0.1716 0.06791,0.10871 0.200077,0.17158 0.360798,0.17158 0.16583,0 0.285427,0.0594 0.345469,0.1716 0.0505,0.0943 0.160184,0.17158 0.24373,0.17158 0.08355,0 0.282729,0.0966 0.442621,0.2145 0.159896,0.11793 0.32539,0.21448 0.367764,0.21448 0.04237,0 0.175203,0.0773 0.29518,0.17158 0.119978,0.0943 0.291356,0.1716 0.380852,0.1716 0.08949,0 0.18453,0.0569 0.211198,0.12632 0.02666,0.0694 0.182966,0.15158 0.347333,0.18242 0.164366,0.0309 0.319064,0.10872 0.343772,0.17314 0.02469,0.0644 0.199379,0.16335 0.388153,0.2199 0.188776,0.0566 0.362728,0.15365 0.38656,0.21575 0.02385,0.062 0.193549,0.13694 0.377145,0.1663 0.183864,0.0293 0.333812,0.10215 0.333812,0.16193 0,0.12744 0.189769,0.21271 0.473103,0.21271 0.123499,0 0.221946,0.0639 0.253946,0.16465 0.03502,0.11025 0.164391,0.1836 0.391854,0.22203 0.192824,0.0326 0.339599,0.10578 0.339599,0.16934 0,0.12982 0.187141,0.21612 0.468877,0.21612 0.125302,0 0.213861,0.0627 0.242333,0.17159 0.03464,0.13247 0.117029,0.17159 0.361215,0.17159 0.244193,0 0.326581,0.0391 0.361216,0.17159 0.02469,0.0943 0.110085,0.17159 0.189785,0.17159 0.07971,0 0.275736,0.0965 0.435632,0.21448 0.159897,0.11793 0.341129,0.21448 0.402743,0.21448 0.06161,0 0.189238,0.0773 0.283612,0.17159 0.09438,0.0943 0.258819,0.17159 0.365435,0.17159 0.106619,0 0.242069,0.0773 0.30101,0.17159 0.0679,0.10872 0.200073,0.17159 0.360794,0.17159 0.162248,0 0.28538,0.0594 0.341735,0.16461 0.04846,0.0905 0.208176,0.19099 0.354931,0.22322 0.146761,0.0323 0.340117,0.13192 0.429685,0.22146 0.08957,0.0896 0.274173,0.16286 0.410229,0.16286 0.175225,0 0.260464,0.05 0.292249,0.17158 0.03401,0.1301 0.117029,0.17159 0.343177,0.17159 0.220573,0 0.309375,0.0423 0.340788,0.16248 0.02613,0.0996 0.154381,0.18707 0.331734,0.22603 0.159076,0.0349 0.339686,0.13554 0.401351,0.22357 0.07127,0.10173 0.216215,0.16007 0.397523,0.16007 0.213251,0 0.296744,0.0433 0.330281,0.17158 0.02683,0.10271 0.116959,0.1716 0.224486,0.1716 0.09879,0 0.256836,0.0773 0.351214,0.17158 0.09432,0.0943 0.233583,0.1716 0.309337,0.1716 0.07574,0 0.252462,0.0966 0.39266,0.21448 0.140197,0.11794 0.329149,0.21448 0.419909,0.21448 0.0907,0 0.24222,0.0773 0.3366,0.1716 0.0943,0.0943 0.25882,0.17158 0.36544,0.17158 0.10662,0 0.24207,0.0773 0.30101,0.17158 0.0604,0.0967 0.20007,0.1716 0.32019,0.1716 0.12115,0 0.25957,0.0749 0.321,0.17375 0.0636,0.10229 0.24031,0.19503 0.42969,0.22545 0.17695,0.0285 0.32173,0.10061 0.32173,0.16025 0,0.12744 0.18976,0.21269 0.47311,0.21269 0.12632,0 0.22202,0.0641 0.25615,0.1716 0.0373,0.11752 0.12981,0.17158 0.29353,0.17158 0.1361,0 0.33875,0.0924 0.4705,0.2145 0.1273,0.11793 0.31667,0.21448 0.42086,0.21448 0.10424,0 0.23765,0.0773 0.29659,0.17158 0.059,0.0943 0.19737,0.1716 0.30762,0.1716 0.11025,0 0.27035,0.0773 0.35574,0.17158 0.0854,0.0943 0.22773,0.17158 0.31628,0.17158 0.0886,0 0.18249,0.056 0.20876,0.12451 0.0263,0.0685 0.18917,0.17063 0.36195,0.22696 0.17277,0.0563 0.40621,0.17402 0.51874,0.26153 0.11249,0.0875 0.25731,0.15911 0.32173,0.15911 0.0644,0 0.19433,0.0773 0.28871,0.17159 0.0943,0.0943 0.28291,0.17159 0.41896,0.17159 0.16847,0 0.26061,0.0506 0.28885,0.15858 0.0245,0.0936 0.15044,0.18037 0.3076,0.21179 0.14637,0.0293 0.34456,0.13164 0.44041,0.22751 0.0959,0.0959 0.26942,0.17427 0.38574,0.17427 0.12367,0 0.2496,0.0713 0.3033,0.17159 0.0637,0.1192 0.17963,0.17158 0.37908,0.17158 0.20961,0 0.29872,0.0439 0.32969,0.16228 0.0292,0.11179 0.15248,0.18087 0.39608,0.22203 0.20317,0.0344 0.35365,0.10745 0.35365,0.17172 0,0.12381 0.18481,0.21612 0.43297,0.21612 0.0889,0 0.20287,0.0773 0.25339,0.17159 0.0511,0.0956 0.17963,0.17158 0.28999,0.17158 0.10899,0 0.26804,0.0773 0.35345,0.1716 0.0854,0.0943 0.22062,0.17158 0.30046,0.17158 0.0798,0 0.2354,0.0783 0.3457,0.17393 0.11025,0.0957 0.29552,0.19777 0.41162,0.22691 0.11612,0.0291 0.28271,0.12464 0.37024,0.21215 0.0876,0.0876 0.24641,0.15917 0.35303,0.15917 0.10662,0 0.24207,0.0773 0.30101,0.17158 0.0679,0.10872 0.20007,0.1716 0.36078,0.1716 0.16225,0 0.28539,0.0593 0.34174,0.16461 0.0485,0.0905 0.2139,0.19223 0.36765,0.22601 0.15374,0.0338 0.32999,0.13345 0.39164,0.22145 0.0625,0.0892 0.21494,0.16007 0.344,0.16007 0.1389,0 0.27482,0.0687 0.33903,0.17158 0.0728,0.11654 0.20009,0.1716 0.39671,0.1716 0.21198,0 0.30093,0.0436 0.33205,0.16248 0.026,0.0996 0.15436,0.18705 0.33172,0.22601 0.15909,0.0349 0.33969,0.13555 0.40135,0.2236 0.0616,0.088 0.1714,0.16005 0.24385,0.16005 0.0725,0 0.22991,0.0773 0.34989,0.1716 0.12003,0.0943 0.29015,0.17158 0.37815,0.17158 0.088,0 0.23723,0.0773 0.33161,0.17159 0.0943,0.0943 0.23358,0.17159 0.30935,0.17159 0.0757,0 0.25246,0.0966 0.39266,0.21448 0.14018,0.11794 0.32057,0.21449 0.40083,0.21449 0.0802,0 0.21205,0.0773 0.29286,0.17159 0.0841,0.0982 0.25309,0.17158 0.39513,0.17158 0.17606,0 0.26127,0.0499 0.29309,0.1716 0.0342,0.13065 0.1171,0.17158 0.3474,0.17158 0.22712,0 0.31609,0.0428 0.35697,0.1715 0.0376,0.11835 0.15884,0.18818 0.39185,0.22545 0.18647,0.0298 0.33742,0.10256 0.33742,0.1625 0,0.12744 0.18977,0.2127 0.4731,0.2127 0.12199,0 0.2219,0.0637 0.2528,0.16101 0.0341,0.10732 0.16481,0.1792 0.39185,0.2155 0.21009,0.0337 0.34076,0.10089 0.34076,0.17535 0,0.0665 0.11179,0.14541 0.24848,0.17543 0.13666,0.03 0.31639,0.12954 0.39937,0.22131 0.083,0.0917 0.22212,0.16672 0.30918,0.16672 0.087,0 0.23551,0.0773 0.32987,0.1716 0.0943,0.0943 0.26933,0.17158 0.38878,0.17158 0.11947,0 0.23868,0.056 0.26497,0.12451 0.0263,0.0685 0.18396,0.16948 0.35041,0.22443 0.16644,0.0549 0.37536,0.17261 0.46428,0.26153 0.0889,0.0889 0.25818,0.16165 0.37614,0.16165 0.1716,0 0.21448,0.0429 0.21448,0.21449 0,0.16964 -0.0433,0.21448 -0.20746,0.21448 -0.29618,0 -0.47888,0.0854 -0.47888,0.22367 0,0.0703 -0.0883,0.11947 -0.2145,0.11947 -0.11793,0 -0.29168,0.0773 -0.38606,0.17158 -0.0943,0.0943 -0.22411,0.1716 -0.2883,0.1716 -0.0641,0 -0.25896,0.0966 -0.4328,0.21448 -0.17383,0.11794 -0.37225,0.21448 -0.44094,0.21448 -0.0686,0 -0.2021,0.0773 -0.29646,0.17158 -0.0943,0.0943 -0.25242,0.1716 -0.35121,0.1716 -0.10383,0 -0.19748,0.0682 -0.22193,0.16182 -0.0282,0.10773 -0.14748,0.1787 -0.3566,0.21231 -0.18262,0.0293 -0.35951,0.12325 -0.42225,0.22426 -0.0706,0.11361 -0.1996,0.17375 -0.37265,0.17375 -0.19254,0 -0.27693,0.0468 -0.30956,0.1716 -0.0335,0.12814 -0.11696,0.17158 -0.33028,0.17158 -0.1792,0 -0.32714,0.0587 -0.39752,0.15772 -0.0616,0.0868 -0.22794,0.1864 -0.36949,0.22146 -0.14157,0.0351 -0.32646,0.13778 -0.41087,0.22834 -0.0844,0.0905 -0.24714,0.16464 -0.36161,0.16464 -0.12031,0 -0.24686,0.0724 -0.29996,0.17158 -0.0531,0.0992 -0.17963,0.1716 -0.29994,0.1716 -0.11445,0 -0.2772,0.0718 -0.36161,0.15949 -0.0844,0.0877 -0.25253,0.18318 -0.3736,0.21215 -0.12101,0.0289 -0.31036,0.13093 -0.42065,0.22657 -0.11025,0.0957 -0.26586,0.17393 -0.3457,0.17393 -0.0798,0 -0.21504,0.0773 -0.30046,0.17158 -0.0854,0.0943 -0.24321,0.1716 -0.35068,0.1716 -0.12003,0 -0.21641,0.0662 -0.24986,0.17158 -0.0379,0.11919 -0.12982,0.17159 -0.3012,0.17159 -0.14579,0 -0.2938,0.0672 -0.36177,0.16422 -0.0633,0.0903 -0.25717,0.1909 -0.4309,0.22348 -0.20075,0.0376 -0.3347,0.1185 -0.3675,0.22186 -0.0379,0.11906 -0.13261,0.16259 -0.35413,0.16259 -0.23037,0 -0.31323,0.0409 -0.3474,0.17159 -0.0319,0.12171 -0.11696,0.17158 -0.2931,0.17158 -0.14186,0 -0.31102,0.0734 -0.39481,0.17122 -0.0806,0.0942 -0.27433,0.19519 -0.43046,0.22448 -0.15611,0.0292 -0.32276,0.12604 -0.37034,0.21484 -0.0486,0.091 -0.17862,0.16161 -0.29722,0.16161 -0.1178,0 -0.25799,0.0756 -0.3179,0.17159 -0.059,0.0943 -0.18919,0.17159 -0.28943,0.17159 -0.1002,0 -0.27436,0.0701 -0.38689,0.15593 -0.11249,0.0858 -0.3288,0.20573 -0.4806,0.26661 -0.15179,0.0609 -0.3206,0.16445 -0.37514,0.23015 -0.0545,0.0657 -0.17128,0.11947 -0.25949,0.11947 -0.0882,0 -0.20858,0.0773 -0.26751,0.17159 -0.0665,0.10648 -0.20007,0.17159 -0.35194,0.17159 -0.17263,0 -0.25801,0.0506 -0.28964,0.17159 -0.0319,0.12157 -0.1171,0.17158 -0.29225,0.17158 -0.1361,0 -0.32581,0.0784 -0.42165,0.17428 -0.0959,0.0959 -0.29026,0.19746 -0.43201,0.22581 -0.14176,0.0284 -0.29635,0.12367 -0.34352,0.21181 -0.0541,0.10103 -0.17956,0.16025 -0.3394,0.16025 -0.16073,0 -0.29289,0.0629 -0.3608,0.17159 -0.059,0.0943 -0.19439,0.17159 -0.30101,0.17159 -0.10662,0 -0.27226,0.0784 -0.36812,0.17427 -0.0959,0.0959 -0.29195,0.19781 -0.43578,0.22657 -0.14385,0.0288 -0.30636,0.12408 -0.36114,0.21181 -0.0548,0.0877 -0.18684,0.15949 -0.29346,0.15949 -0.10662,0 -0.27106,0.0773 -0.36544,0.1716 -0.0943,0.0943 -0.2488,0.17158 -0.34317,0.17158 -0.0943,0 -0.24499,0.0734 -0.33471,0.16312 -0.0897,0.0897 -0.24795,0.19005 -0.35164,0.22296 -0.10368,0.033 -0.26193,0.13317 -0.35164,0.22295 -0.0897,0.0897 -0.25705,0.16313 -0.37183,0.16313 -0.13331,0 -0.22837,0.0619 -0.26316,0.17158 -0.0341,0.10746 -0.12982,0.17158 -0.25616,0.17158 -0.28314,0 -0.4731,0.0852 -0.4731,0.21245 0,0.0595 -0.13219,0.12967 -0.29384,0.15597 -0.16162,0.0263 -0.37395,0.12786 -0.47186,0.22572 -0.098,0.0979 -0.27817,0.17802 -0.40056,0.17802 -0.15035,0 -0.23706,0.0556 -0.26738,0.17158 -0.0316,0.12087 -0.11696,0.1716 -0.28891,0.1716 -0.13428,0 -0.3131,0.0727 -0.39752,0.16159 -0.0844,0.0889 -0.28155,0.18903 -0.4381,0.22257 -0.15655,0.0335 -0.3053,0.11486 -0.33055,0.18065 -0.0253,0.0658 -0.19241,0.15912 -0.37146,0.20733 -0.17904,0.0482 -0.34759,0.14514 -0.37456,0.21542 -0.027,0.0703 -0.12227,0.12772 -0.21173,0.12772 -0.08943,0 -0.26088,0.0773 -0.380857,0.17158 -0.120034,0.0943 -0.264005,0.1716 -0.320053,0.1716 -0.05603,0 -0.209006,0.0763 -0.339898,0.16944 -0.130933,0.0932 -0.339531,0.20807 -0.463659,0.25526 -0.124086,0.0472 -0.225688,0.14468 -0.225688,0.21663 0,0.0922 -0.08831,0.13079 -0.299553,0.13079 -0.206643,0 -0.332797,0.0532 -0.406717,0.1716 -0.06428,0.10285 -0.200075,0.17158 -0.339043,0.17158 -0.131212,0 -0.281834,0.0714 -0.346896,0.16423 -0.0633,0.0903 -0.254949,0.19046 -0.42594,0.22255 -0.202858,0.038 -0.32577,0.11514 -0.353674,0.22184 -0.03039,0.11626 -0.119266,0.16352 -0.307451,0.16352 -0.171771,0 -0.302301,0.0602 -0.371845,0.1716 -0.05894,0.0943 -0.194391,0.17158 -0.301007,0.17158 -0.106619,0 -0.26713,0.0732 -0.356699,0.16287 -0.08957,0.0896 -0.278605,0.18826 -0.420074,0.21934 -0.141473,0.031 -0.32512,0.13149 -0.408107,0.22321 -0.08299,0.0917 -0.222117,0.16674 -0.309178,0.16674 -0.08706,0 -0.235504,0.0773 -0.329879,0.17158 -0.09438,0.0943 -0.24282,0.1716 -0.329879,0.1716 -0.08705,0 -0.224161,0.0728 -0.304667,0.16173 -0.0805,0.089 -0.260223,0.18452 -0.399371,0.21234 -0.139289,0.0278 -0.252994,0.10606 -0.252994,0.1739 0,0.0776 -0.131087,0.14544 -0.353644,0.18304 -0.243601,0.0411 -0.366851,0.11026 -0.396081,0.22203 -0.03136,0.1199 -0.120299,0.16228 -0.340741,0.16228 -0.226153,0 -0.309158,0.0415 -0.343177,0.17158 -0.03183,0.12171 -0.117029,0.1716 -0.293087,0.1716 -0.141869,0 -0.31103,0.0734 -0.39482,0.17121 -0.08063,0.0942 -0.278273,0.19592 -0.4392,0.22611 -0.183603,0.0345 -0.308187,0.11445 -0.334437,0.21486 -0.02844,0.10886 -0.119894,0.15996 -0.285864,0.15996 -0.134217,0 -0.313101,0.0727 -0.397514,0.16159 -0.08442,0.0889 -0.278728,0.18842 -0.431803,0.22119 -0.15308,0.0328 -0.307507,0.10899 -0.343177,0.16946 -0.03567,0.0604 -0.206223,0.15577 -0.379,0.21192 -0.172777,0.0562 -0.335646,0.15813 -0.361933,0.22662 -0.02628,0.0685 -0.145522,0.12451 -0.264967,0.12451 -0.119447,0 -0.294392,0.0773 -0.388768,0.1716 -0.09438,0.0943 -0.223516,0.17158 -0.286982,0.17158 -0.06347,0 -0.181814,0.0734 -0.26299,0.1631 -0.08117,0.0897 -0.280199,0.18797 -0.442268,0.21837 -0.174006,0.0327 -0.294671,0.10592 -0.294671,0.17907 0,0.0788 -0.129032,0.14442 -0.354553,0.18048 -0.242851,0.0388 -0.367634,0.10676 -0.39608,0.2155 -0.02525,0.0966 -0.118986,0.15881 -0.23899,0.15881 -0.279384,0 -0.468879,0.0859 -0.468879,0.2127 0,0.0597 -0.144778,0.13177 -0.321729,0.16025 -0.189389,0.0305 -0.366142,0.1231 -0.429699,0.22545 -0.07058,0.1136 -0.199604,0.17374 -0.372655,0.17374 -0.192536,0 -0.27692,0.0468 -0.30956,0.1716 -0.03183,0.12171 -0.117029,0.17158 -0.293087,0.17158 -0.142046,0 -0.311059,0.0734 -0.395134,0.1716 -0.08081,0.0943 -0.212592,0.17158 -0.292858,0.17158 -0.08026,0 -0.260645,0.0966 -0.400843,0.21448 -0.140193,0.11794 -0.335868,0.21449 -0.434822,0.21449 -0.09896,0 -0.228146,0.0773 -0.287087,0.17159 -0.05894,0.0943 -0.193031,0.17158 -0.297987,0.17158 -0.104956,0 -0.232154,0.0773 -0.282661,0.1716 -0.05838,0.10913 -0.179636,0.17158 -0.3329,0.17158 -0.132582,0 -0.308963,0.075 -0.39195,0.16674 -0.08299,0.0917 -0.263026,0.19135 -0.400085,0.22145 -0.137053,0.03 -0.288843,0.12884 -0.337298,0.21935 -0.05608,0.1048 -0.179454,0.16462 -0.339442,0.16462 -0.163542,0 -0.283428,0.0599 -0.343178,0.17158 -0.05951,0.11123 -0.179639,0.17158 -0.341333,0.17158 -0.160565,0 -0.297103,0.0679 -0.383055,0.19069 l -0.13356,0.19067 z"
       id="path828"
       inkscape:connector-curvature="0"
       inkscape:export-xdpi="96"
       inkscape:export-ydpi="96" />
  </g>
</svg>
